#!OML:ASF E:\Steps\Project 1\Capture day 1\Session 2\Subject.ASF
:FULLY-SPECIFIED
:DEGREES
426
root 8.83409 16.1831 11.3409 -157.923 2.45212 176.794
lowerback -24.4841 -2.10647 -7.43093
upperback 1.0011 0.0224464 -2.05114
thorax 15.0396 -0.335949 1.92797
lowerneck -4.27972 -2.84157 -1.77595
upperneck 20.3293 -3.1303 3.27085
head 6.9813 -0.898173 1.18503
rclavicle -1.98785e-015 -2.22639e-014
rhumerus -38.322 -13.3821 -79.3173
rradius 37.7873
rwrist -0.939947
rhand -8.08165 -52.1823
rfingers 7.12502
rthumb 17.8303 -81.3849
lclavicle -1.98785e-015 -2.22639e-014
lhumerus -32.455 11.1606 75.3727
lradius 23.6576
lwrist -8.72311
lhand -20.3513 -8.37337
lfingers 7.12502
lthumb 6.00067 21.5217
rfemur -41.003 -3.50162 20.3387
rtibia 66.3989
rfoot -11.3846 -12.4282
rtoes -42.3089
lfemur -29.9645 -5.55749 -24.2367
ltibia 12.0064
lfoot -4.00195 -0.194813
ltoes -32.3758
427
root 8.82905 16.1959 11.2602 -157.984 2.32973 176.869
lowerback -24.2485 -2.05726 -7.2303
upperback 0.971093 0.00436514 -2.07742
thorax 14.8671 -0.322392 1.77972
lowerneck -3.85377 -2.71768 -1.50414
upperneck 20.3005 -2.91941 3.08767
head 6.88372 -0.781976 1.10071
rclavicle -2.18663e-015 -5.00937e-014
rhumerus -38.9177 -14.2107 -78.9009
rradius 37.4379
rwrist -0.70261
rhand -7.86956 -52.3062
rfingers 7.12502
rthumb 18.0343 -81.4901
lclavicle -2.18663e-015 -5.00937e-014
lhumerus -32.209 10.8539 75.3918
lradius 24.0031
lwrist -8.73031
lhand -20.7823 -8.65544
lfingers 7.12502
lthumb 5.58451 21.251
rfemur -42.0253 -3.14568 20.3127
rtibia 66.4867
rfoot -12.6174 -12.1508
rtoes -42.3364
lfemur -29.5162 -5.67545 -24.2061
ltibia 11.8387
lfoot -4.00489 -0.0954112
ltoes -33.8718
428
root 8.82505 16.2106 11.1821 -158.06 2.15567 176.956
lowerback -24.1306 -2.12409 -7.11078
upperback 1.12242 -0.16069 -1.97078
thorax 14.9933 -0.408702 1.77019
lowerneck -3.81097 -2.58321 -1.55794
upperneck 20.22 -2.72733 3.05716
head 6.84564 -0.70075 1.11317
rclavicle 6.36111e-015 -6.91771e-014
rhumerus -38.9881 -14.8844 -78.4627
rradius 36.9071
rwrist -0.53717
rhand -8.11704 -52.4765
rfingers 7.12502
rthumb 17.7962 -81.6822
lclavicle 6.36111e-015 -6.91771e-014
lhumerus -31.6832 11.0248 75.503
lradius 24.4141
lwrist -8.58075
lhand -20.6357 -8.34983
lfingers 7.12502
lthumb 5.72605 21.5528
rfemur -42.9077 -2.84675 20.2627
rtibia 66.104
rfoot -13.236 -11.8749
rtoes -41.5739
lfemur -29.0739 -5.66233 -24.1837
ltibia 11.756
lfoot -3.78655 -0.241213
ltoes -38.5707
429
root 8.81689 16.2251 11.1011 -158.156 1.97303 177.085
lowerback -24.0274 -2.21502 -6.93395
upperback 1.31151 -0.384797 -1.81325
thorax 15.1777 -0.524123 1.76358
lowerneck -3.99524 -2.57716 -1.70654
upperneck 20.3069 -2.7035 3.00625
head 6.90734 -0.706617 1.12189
rclavicle -5.96354e-015 -1.59028e-015
rhumerus -38.8701 -15.5547 -78.0085
rradius 36.2857
rwrist -0.293472
rhand -8.96768 -52.5051
rfingers 7.12502
rthumb 16.9775 -81.7831
lclavicle -5.96354e-015 -1.59028e-015
lhumerus -31.1059 11.3358 75.6413
lradius 24.7176
lwrist -8.45923
lhand -20.7224 -8.01688
lfingers 7.12502
lthumb 5.6424 21.888
rfemur -43.6845 -2.52403 20.1684
rtibia 65.3001
rfoot -13.3396 -11.5947
rtoes -40.0673
lfemur -28.5844 -5.66309 -24.1173
ltibia 11.6737
lfoot -5.20916 -0.406155
ltoes -37.2233
430
root 8.8081 16.2353 11.0168 -158.265 1.84151 177.133
lowerback -23.7696 -2.22629 -6.7692
upperback 1.33594 -0.48377 -1.7872
thorax 15.0628 -0.558141 1.66618
lowerneck -3.99612 -2.64241 -1.68241
upperneck 20.5736 -2.77961 3.07259
head 6.99647 -0.720211 1.13658
rclavicle -7.55382e-015 -6.36111e-015
rhumerus -39.1557 -16.3166 -77.5551
rradius 35.7082
rwrist -0.055136
rhand -8.99716 -52.336
rfingers 7.12502
rthumb 16.9492 -81.6165
lclavicle -7.55382e-015 -6.36111e-015
lhumerus -30.8062 11.0693 75.7333
lradius 25.0015
lwrist -8.22564
lhand -21.1213 -8.16263
lfingers 7.12502
lthumb 5.25721 21.7522
rfemur -44.4401 -2.50099 20.2385
rtibia 65.3805
rfoot -14.0201 -11.668
rtoes -42.0195
lfemur -28.0151 -5.86069 -24.1173
ltibia 11.4665
lfoot -7.03998 -0.758556
ltoes -45.0686
431
root 8.80323 16.243 10.9364 -158.259 1.69426 177.101
lowerback -23.6201 -2.27057 -6.75034
upperback 1.35643 -0.571966 -1.75009
thorax 15.0079 -0.599674 1.66763
lowerneck -4.20227 -2.58409 -1.63472
upperneck 20.8892 -2.69017 3.12153
head 7.13326 -0.653865 1.15242
rclavicle 5.1684e-015 2.46493e-014
rhumerus -39.4438 -16.9965 -77.1121
rradius 35.2391
rwrist 0.0743384
rhand -8.15163 -52.7299
rfingers 7.12502
rthumb 17.7629 -81.9386
lclavicle 5.1684e-015 2.46493e-014
lhumerus -30.4938 10.6475 75.9348
lradius 25.4662
lwrist -7.71703
lhand -21.3222 -8.57919
lfingers 7.12502
lthumb 5.06324 21.3403
rfemur -45.2458 -2.10812 19.8769
rtibia 64.422
rfoot -14.2253 -11.519
rtoes -39.21
lfemur -27.6242 -6.15171 -24.1571
ltibia 11.3254
lfoot -5.09131 0.0324444
ltoes -31.7999
432
root 8.80036 16.2529 10.859 -158.253 1.44588 177.15
lowerback -23.564 -2.40948 -6.68805
upperback 1.49877 -0.81643 -1.59196
thorax 15.1673 -0.728026 1.72122
lowerneck -4.56231 -2.5419 -1.83643
upperneck 21.1131 -2.62491 3.18019
head 7.27261 -0.629878 1.20902
rclavicle -1.31198e-014 -2.94201e-014
rhumerus -39.439 -17.4315 -76.7127
rradius 34.7771
rwrist 0.136982
rhand -7.89053 -53.0079
rfingers 7.12502
rthumb 18.0142 -82.1937
lclavicle -1.31198e-014 -2.94201e-014
lhumerus -30.1211 10.3458 76.2404
lradius 26.1833
lwrist -6.77662
lhand -21.3748 -8.83325
lfingers 7.12502
lthumb 5.01248 21.0875
rfemur -46.008 -1.81337 19.6879
rtibia 63.3812
rfoot -14.587 -11.7783
rtoes -38.4835
lfemur -27.3306 -6.39751 -24.088
ltibia 11.3458
lfoot -5.314 0.116089
ltoes -35.5829
433
root 8.79789 16.2638 10.7804 -158.281 1.18779 177.31
lowerback -23.4644 -2.50635 -6.51276
upperback 1.6199 -1.04494 -1.42553
thorax 15.2722 -0.838997 1.72729
lowerneck -4.7056 -2.73575 -2.12552
upperneck 21.2426 -2.91176 3.43016
head 7.35701 -0.766796 1.31677
rclavicle -4.57205e-015 8.74653e-015
rhumerus -39.5917 -17.8675 -76.2818
rradius 34.3726
rwrist 0.161662
rhand -8.03369 -52.9162
rfingers 7.12502
rthumb 17.8764 -82.1146
lclavicle -4.57205e-015 8.74653e-015
lhumerus -29.767 10.0647 76.4979
lradius 26.8056
lwrist -5.86341
lhand -21.5008 -8.70094
lfingers 7.12502
lthumb 4.89083 21.2226
rfemur -46.5883 -1.59787 19.6725
rtibia 62.1241
rfoot -15.4807 -12.1834
rtoes -40.7618
lfemur -26.9714 -6.62965 -23.8944
ltibia 11.3053
lfoot -5.47902 0.210409
ltoes -35.7674
434
root 8.79572 16.2722 10.7052 -158.235 0.94868 177.432
lowerback -23.3738 -2.55544 -6.39264
upperback 1.67765 -1.17718 -1.32365
thorax 15.2982 -0.900787 1.7278
lowerneck -4.62002 -2.51293 -1.83974
upperneck 21.2088 -2.57032 3.13133
head 7.31223 -0.60573 1.19817
rclavicle 3.97569e-015 6.36111e-015
rhumerus -39.868 -18.4698 -75.8544
rradius 33.9583
rwrist 0.245325
rhand -7.98776 -52.9769
rfingers 7.12502
rthumb 17.9206 -82.1712
lclavicle 3.97569e-015 6.36111e-015
lhumerus -29.395 9.77217 76.6993
lradius 27.308
lwrist -5.32222
lhand -21.9242 -8.70151
lfingers 7.12502
lthumb 4.48193 21.2311
rfemur -47.2284 -1.43912 19.6445
rtibia 60.8799
rfoot -16.2305 -12.8153
rtoes -42.5708
lfemur -26.7035 -6.84604 -23.7459
ltibia 11.2643
lfoot -5.73296 0.266984
ltoes -35.7507
435
root 8.79728 16.2728 10.6339 -158.039 0.876408 177.518
lowerback -23.3915 -2.58814 -6.3456
upperback 1.67504 -1.25002 -1.23992
thorax 15.3117 -0.93643 1.77062
lowerneck -4.70995 -2.66596 -1.60158
upperneck 21.422 -2.76809 2.98332
head 7.39802 -0.685051 1.09569
rclavicle 5.76476e-015 -2.46493e-014
rhumerus -40.0888 -18.974 -75.4996
rradius 33.5016
rwrist 0.292548
rhand -8.00372 -53.056
rfingers 7.12502
rthumb 17.9053 -82.2517
lclavicle 5.76476e-015 -2.46493e-014
lhumerus -29.128 9.5279 76.8821
lradius 27.9259
lwrist -5.08098
lhand -22.322 -8.69342
lfingers 7.12502
lthumb 4.09783 21.2469
rfemur -48.0812 -1.08111 19.5173
rtibia 59.6915
rfoot -16.6762 -13.4983
rtoes -42.8231
lfemur -26.6931 -6.98555 -23.6307
ltibia 11.3757
lfoot -6.03289 0.378565
ltoes -36.1341
